<svg xmlns="http://www.w3.org/2000/svg" viewBox="0 0 64 64" width="64" height="64" role="img" aria-label="Extension placeholder icon">
  <defs>
    <linearGradient id="ext-grad" x1="0" y1="0" x2="1" y2="1">
      <stop offset="0" stop-color="#3b4a6b"/>
      <stop offset="1" stop-color="#2a3450"/>
    </linearGradient>
  </defs>
  <!-- Rounded plate -->
  <rect x="2" y="2" width="60" height="60" rx="14" fill="url(#ext-grad)" stroke="#4f6289" stroke-width="1.5" stroke-dasharray="4 3"/>
  <!-- Puzzle piece glyph -->
  <path fill="#aab7d6" d="M38.2 16.5a4.2 4.2 0 0 0-8.4 0c0 .7.2 1.4.5 2H24a2 2 0 0 0-2 2v6.3c-.6-.3-1.3-.5-2-.5a4.2 4.2 0 0 0 0 8.4c.7 0 1.4-.2 2-.5V46a2 2 0 0 0 2 2h6.3c-.3.6-.5 1.3-.5 2a4.2 4.2 0 0 0 8.4 0c0-.7-.2-1.4-.5-2H46a2 2 0 0 0 2-2v-6.3c.6.3 1.3.5 2 .5a4.2 4.2 0 0 0 0-8.4c-.7 0-1.4.2-2 .5V24a2 2 0 0 0-2-2h-6.3c.3-.6.5-1.3.5-2z"/>
</svg>
